<svg width="94" height="14" viewBox="0 0 94 14" fill="none" xmlns="http://www.w3.org/2000/svg">
<path d="M0.232 1.848V13H5.592V11.816H1.688V1.848H0.232ZM7.13825 13H8.59425V4.232H7.13825V13ZM7.89025 2.808C8.41825 2.808 8.85025 2.376 8.85025 1.816C8.85025 1.256 8.41825 0.823999 7.89025 0.823999C7.33025 0.823999 6.89825 1.256 6.89825 1.816C6.89825 2.376 7.33025 2.808 7.89025 2.808ZM10.0358 4.232L13.4758 13H15.1718L18.6118 4.232H17.0598L14.3398 11.656L11.6038 4.232H10.0358ZM23.7725 5.32C25.2765 5.32 26.5565 6.264 26.5405 7.976H21.0045C21.1645 6.264 22.3485 5.32 23.7725 5.32ZM27.8685 10.296H26.3005C25.9805 11.24 25.1485 11.912 23.8365 11.912C22.3485 11.912 21.1005 10.936 20.9885 9.16H27.9965C28.0285 8.856 28.0445 8.6 28.0445 8.28C28.0445 5.88 26.3805 4.088 23.8365 4.088C21.2765 4.088 19.5005 5.832 19.5005 8.6C19.5005 11.384 21.3405 13.144 23.8365 13.144C26.0125 13.144 27.4205 11.896 27.8685 10.296ZM35.688 7.144V3.048H37.832C39.496 3.048 40.2 3.816 40.2 5.112C40.2 6.36 39.496 7.144 37.832 7.144H35.688ZM41.688 5.112C41.688 3.288 40.456 1.848 37.832 1.848H34.232V13H35.688V8.344H37.832C40.6 8.344 41.688 6.808 41.688 5.112ZM44.9536 8.232C44.9536 6.2 46.0096 5.576 47.4016 5.576H47.7856V4.072C46.3936 4.072 45.4496 4.68 44.9536 5.656V4.232H43.4976V13H44.9536V8.232ZM53.1944 5.32C54.6984 5.32 55.9784 6.264 55.9624 7.976H50.4264C50.5864 6.264 51.7704 5.32 53.1944 5.32ZM57.2904 10.296H55.7224C55.4024 11.24 54.5704 11.912 53.2584 11.912C51.7704 11.912 50.5224 10.936 50.4104 9.16H57.4184C57.4504 8.856 57.4664 8.6 57.4664 8.28C57.4664 5.88 55.8024 4.088 53.2584 4.088C50.6984 4.088 48.9224 5.832 48.9224 8.6C48.9224 11.384 50.7624 13.144 53.2584 13.144C55.4344 13.144 56.8424 11.896 57.2904 10.296ZM58.3483 4.232L61.7883 13H63.4843L66.9243 4.232H65.3723L62.6523 11.656L59.9163 4.232H58.3483ZM68.357 13H69.813V4.232H68.357V13ZM69.109 2.808C69.637 2.808 70.069 2.376 70.069 1.816C70.069 1.256 69.637 0.823999 69.109 0.823999C68.549 0.823999 68.117 1.256 68.117 1.816C68.117 2.376 68.549 2.808 69.109 2.808ZM76.0225 5.32C77.5265 5.32 78.8065 6.264 78.7905 7.976H73.2545C73.4145 6.264 74.5985 5.32 76.0225 5.32ZM80.1185 10.296H78.5505C78.2305 11.24 77.3985 11.912 76.0865 11.912C74.5985 11.912 73.3505 10.936 73.2385 9.16H80.2465C80.2785 8.856 80.2945 8.6 80.2945 8.28C80.2945 5.88 78.6305 4.088 76.0865 4.088C73.5265 4.088 71.7505 5.832 71.7505 8.6C71.7505 11.384 73.5905 13.144 76.0865 13.144C78.2625 13.144 79.6705 11.896 80.1185 10.296ZM83.9284 13H85.4324L87.5444 6.04L89.6564 13H91.1604L93.8964 4.232H92.4564L90.4724 11.608L88.3444 4.232H86.8564L84.6804 11.592L82.6644 4.232H81.1764L83.9284 13Z" fill="black"/>
<path d="M-1 14.6H94.1044V15.4H-1V14.6Z" fill="black"/>
</svg>
